inDegrees=yes
name=ik_S57_A03_T01
DataType=double
version=3
OpenSimVersion=4.3-2021-08-27-4bc7ad9
endheader
time	pelvis_tilt	pelvis_list	pelvis_rotation	pelvis_tx	pelvis_ty	pelvis_tz	hip_flexion_r	hip_adduction_r	hip_rotation_r	knee_angle_r	knee_angle_r_beta	ankle_angle_r	subtalar_angle_r	mtp_angle_r	hip_flexion_l	hip_adduction_l	hip_rotation_l	knee_angle_l	knee_angle_l_beta	ankle_angle_l	subtalar_angle_l	mtp_angle_l	lumbar_extension	lumbar_bending	lumbar_rotation	arm_flex_r	arm_add_r	arm_rot_r	elbow_flex_r	pro_sup_r	wrist_flex_r	wrist_dev_r	arm_flex_l	arm_add_l	arm_rot_l	elbow_flex_l	pro_sup_l	wrist_flex_l	wrist_dev_l
18.57999999999969	4.834208162578032	1.702907944809428	109.7107899911229	0	0.9399999999999999	0	21.01504593059931	2.299305610669224	-1.492545716197249	27.45956196213221	0.4792597673946015	0	0	0	6.109840306711281	-1.151911763074097	-0.3153721241442022	11.87342793564592	0.2072304109752947	0	0	0	0	0	0	38.77211979554134	-38.77211979554137	4.837595516437223	82.82552505966555	85.16240475105789	0	0	38.77211979554134	-38.77211979554137	4.837595516437223	82.82552505966555	85.16240475102762	0	0
18.59999999999969	4.892934273775431	1.57756915552384	109.6505348398871	0	0.9399999999999999	0	21.14677002034734	2.863214007156075	-1.634138667757997	24.17875401016919	0.4219988665072348	0	0	0	6.245372017856323	-1.137687851043835	-0.4577933342855547	11.68829068886318	0.2039991564508586	0	0	0	0	0	0	38.7749421916666	-38.77494219166664	4.837742257332716	82.82749080351999	85.1622580101691	0	0	38.7749421916666	-38.77494219166664	4.837742257332716	82.82749080351999	85.16225801013887	0	0
18.61999999999969	4.928266364519673	1.394232923974885	109.6183447586975	0	0.9399999999999999	0	21.23684787722313	3.125832048070645	-2.086387580658517	22.63200288296038	0.3950029666285075	0	0	0	4.66422530905897	-1.04350282086538	-0.2684844830977734	9.803527235401656	0.1711038285666961	0	0	0	0	0	0	38.77618381982357	-38.77618381982361	4.837807142837	82.82836001763057	85.16219312466784	0	0	38.77618381982357	-38.77618381982361	4.837807142837	82.82836001763057	85.16219312463762	0	0
18.63999999999969	4.924932169293792	1.38717882067314	109.6034469987759	0	0.9399999999999999	0	21.0627185420163	3.628672577170934	-2.701651201233565	19.43559471383423	0.3392151198396124	0	0	0	4.658096166992988	-0.994725013585084	-0.3352761873391055	9.681317969905059	0.1689708745073366	0	0	0	0	0	0	38.77780867402974	-38.77780867402977	4.837891892027439	82.8294953244105	85.16210837548132	0	0	38.77780867402974	-38.77780867402977	4.837891892027439	82.8294953244105	85.16210837545111	0	0
18.65999999999969	4.92497993538904	1.386495478440261	109.602790280334	0	0.9399999999999999	0	20.8270498452534	4.12453661474111	-3.834526834531669	16.20717514010672	0.2828685686422356	0	0	0	4.108436513642363	-1.035587007622262	-0.2816010405659521	9.140039689871811	0.1595237863512245	0	0	0	0	0	0	38.7809783036749	-38.78097830367494	4.838057653647685	82.83171588632209	85.1619426138687	0	0	38.7809783036749	-38.78097830367494	4.838057653647685	82.83171588632209	85.16194261383849	0	0
18.67999999999969	4.923683052960645	1.384786186993328	109.6027268394329	0	0.9399999999999999	0	20.5879310980498	4.532710132419727	-5.012982943023591	13.15170491861125	0.2295405530804992	0	0	0	3.592999805661087	-1.18697848563261	-0.07041312387352956	8.679387574325064	0.1514838902286564	0	0	0	0	0	0	38.78246639695724	-38.78246639695728	4.838135536284247	82.83275921221001	85.16186473123577	0	0	38.78246639695724	-38.78246639695728	4.838135536284247	82.83275921221001	85.16186473120557	0	0
18.69999999999969	4.927772824308018	1.385851820967734	109.604849547026	0	0.9399999999999999	0	20.40108077422083	4.853793509259316	-5.918699941759313	10.27313228297563	0.1792999828308466	0	0	0	3.15528849727774	-1.399781222435181	-0.1948659650715039	8.453461029970974	0.1475407281620245	0	0	0	0	0	0	38.78386693249026	-38.78386693249028	4.838208671828428	82.83373894183016	85.16179159569495	0	0	38.78386693249026	-38.78386693249028	4.838208671828428	82.83373894183016	85.16179159566484	0	0
18.71999999999969	4.918701912995823	1.392629097156166	109.6004759010866	0	0.9399999999999999	0	20.2875077106333	5.144042528016342	-6.141547791200534	7.952094257173889	0.1387902272166171	0	0	0	3.1143815420014	-1.416743837110308	-0.3445859901164637	8.638877927807394	0.150776863518104	0	0	0	0	0	0	38.78535749672193	-38.78535749672196	4.838285746417572	82.83477142377014	85.16171452110937	0	0	38.78535749672193	-38.78535749672196	4.838285746417572	82.83477142377014	85.16171452107928	0	0
18.73999999999969	4.680315882437049	0.2912427099381245	110.6523926402416	0	0.9399999999999999	0	21.2805509756116	4.43453951535412	-6.53719579035565	6.241003709285695	0.1089260633562144	0	0	0	4.052693180973405	-0.7992650836312764	0.5371526810999956	8.897579219671366	0.1552920528402932	0	0	0	0	0	0	38.78696098135762	-38.78696098135764	4.838369492224855	82.83589328866955	85.16163077530592	0	0	38.78696098135762	-38.78696098135764	4.838369492224855	82.83589328866955	85.16163077527584	0	0
18.75999999999969	4.617834898622489	0.1219393770539616	111.3714446938381	0	0.9399999999999999	0	21.46129219362954	4.258161814985239	-5.540077034377287	4.264158024284125	0.0744235973490943	0	0	0	4.161777076042566	-0.6702336265491557	1.107262302943227	9.238510445195796	0.1612424252485538	0	0	0	0	0	0	38.78829515420235	-38.78829515420238	4.838439285685877	82.83682824885051	85.16156098184817	0	0	38.78829515420235	-38.78829515420238	4.838439285685877	82.83682824885051	85.16156098181811	0	0
18.77999999999969	4.552484379380675	0.09980851237628446	111.7562013378793	0	0.9399999999999999	0	21.45082503034281	4.194957648357756	-5.014078464429476	2.794675959795659	0.04877629702476692	0	0	0	2.760952937645875	-0.9041362355582218	-1.059473434290727	8.957599202154732	0.1563395991516172	0	0	0	0	0	0	38.79134062308534	-38.79134062308538	4.838595369223647	82.8389190899931	85.16140489831758	0	0	38.79134062308534	-38.79134062308538	4.838595369223647	82.8389190899931	85.1614048982876	0	0
18.79999999999969	4.5168242802111	0.04160931787795188	112.2335808867966	0	0.9399999999999999	0	21.4150020673459	4.194534461886312	-4.748285535438104	1.598497099056844	0.02789903746211987	0	0	0	2.806242309861982	-0.8227060166740404	-0.5881933812965517	8.980101319369377	0.1567323351856825	0	0	0	0	0	0	38.79264881944424	-38.79264881944427	4.838663722258373	82.83983475143934	85.16133654528602	0	0	38.79264881944424	-38.79264881944427	4.838663722258373	82.83983475143934	85.16133654525608	0	0
18.81999999999969	4.488456352040796	-0.05016491433484047	112.7388042152084	0	0.9399999999999999	0	21.31612295524324	4.190708525660001	-4.744748554549983	0.5754946223271871	0.01004427598713069	0	0	0	2.860222012151435	-0.7967753807760792	-0.2349414800584061	9.395908740074876	0.1639895437312187	0	0	0	0	0	0	38.79358258775609	-38.79358258775613	4.838712443679288	82.84048742502107	85.16128782386738	0	0	38.79358258775609	-38.79358258775613	4.838712443679288	82.84048742502107	85.16128782383745	0	0
18.83999999999969	4.489882048349598	-0.03685384355817168	112.6898257149686	0	0.9399999999999999	0	20.94507595605144	4.525593109569358	-4.422701664050747	-0.008628847992303245	-0.0001506018081197939	0	0	0	1.88533528813472	-1.354084532738209	-0.7438625487617716	9.201558177882891	0.1605974865178665	0	0	0	0	0	0	38.79521692163471	-38.79521692163474	4.838797900204965	82.84163220648513	85.16120236734565	0	0	38.79521692163471	-38.79521692163474	4.838797900204965	82.84163220648513	85.16120236731575	0	0
